<?xml version="1.0" encoding="UTF-8"?>
<!DOCTYPE svg PUBLIC "-//W3C//DTD SVG 1.1//EN" "http://www.w3.org/Graphics/SVG/1.1/DTD/svg11.dtd">
<!-- Creator: CorelDRAW (Evaluation Version) -->
<svg xmlns="http://www.w3.org/2000/svg" xml:space="preserve" width="256px" height="256px" version="1.1" style="shape-rendering:geometricPrecision; text-rendering:geometricPrecision; image-rendering:optimizeQuality; fill-rule:evenodd; clip-rule:evenodd"
viewBox="0 0 52.81 52.81"
 xmlns:xlink="http://www.w3.org/1999/xlink"
 xmlns:xodm="http://www.corel.com/coreldraw/odm/2003">
 <defs>
  <style type="text/css">
   <![CDATA[
    .fil1 {fill:white}
    .fil0 {fill:#F07F1B}
   ]]>
  </style>
 </defs>
 <g id="Layer_x0020_1">
  <metadata id="CorelCorpID_0Corel-Layer"/>
  <circle class="fil0" cx="26.41" cy="26.41" r="26.41"/>
  <path class="fil1" d="M44.49 14.7c2.7,0 4.89,2.18 4.89,4.88 0,2.7 -2.19,4.89 -4.89,4.89 -1.04,0 -2,-0.33 -2.79,-0.88l-5.73 6.24c0.81,0.87 1.3,2.04 1.3,3.32 0,2.7 -2.18,4.89 -4.88,4.89 -2.7,0 -4.89,-2.19 -4.89,-4.89 0,-1.19 0.43,-2.28 1.14,-3.13l-5.2 -5.13c-0.84,0.69 -1.92,1.1 -3.09,1.1 -1.19,0 -2.28,-0.42 -3.13,-1.13l-5.3 5.06c0.8,0.87 1.29,2.04 1.29,3.31 0,2.7 -2.19,4.89 -4.89,4.89 -2.7,0 -4.89,-2.19 -4.89,-4.89 0,-2.7 2.19,-4.89 4.89,-4.89 1.06,0 2.04,0.34 2.84,0.91l0 0 5.35 -5.11c-0.66,-0.84 -1.05,-1.89 -1.05,-3.03 0,-2.7 2.19,-4.89 4.89,-4.89 2.7,0 4.88,2.19 4.88,4.89 0,1.16 -0.4,2.23 -1.08,3.06l5.21 5.14c0.84,-0.65 1.89,-1.04 3.03,-1.04 1.05,0 2.02,0.33 2.82,0.89l5.72 -6.23c-0.82,-0.88 -1.32,-2.05 -1.32,-3.35 0,-2.7 2.18,-4.88 4.88,-4.88zm-24.14 2.34c2.24,0 4.06,1.82 4.06,4.07 0,2.24 -1.82,4.06 -4.06,4.06 -2.25,0 -4.07,-1.82 -4.07,-4.06 0,-2.25 1.82,-4.07 4.07,-4.07zm0 0.79c1.81,0 3.27,1.47 3.27,3.28 0,1.81 -1.46,3.27 -3.27,3.27 -1.81,0 -3.28,-1.46 -3.28,-3.27 0,-1.81 1.47,-3.28 3.28,-3.28zm-12.03 11.34c2.24,0 4.06,1.82 4.06,4.06 0,2.24 -1.82,4.06 -4.06,4.06 -2.24,0 -4.06,-1.82 -4.06,-4.06 0,-2.24 1.82,-4.06 4.06,-4.06zm0 0.79c1.81,0 3.28,1.46 3.28,3.27 0,1.81 -1.47,3.28 -3.28,3.28 -1.81,0 -3.27,-1.47 -3.27,-3.28 0,-1.81 1.46,-3.27 3.27,-3.27zm24.07 -0.87c2.24,0 4.06,1.82 4.06,4.06 0,2.25 -1.82,4.07 -4.06,4.07 -2.25,0 -4.07,-1.82 -4.07,-4.07 0,-2.24 1.82,-4.06 4.07,-4.06zm0 0.79c1.81,0 3.27,1.46 3.27,3.27 0,1.81 -1.46,3.28 -3.27,3.28 -1.81,0 -3.28,-1.47 -3.28,-3.28 0,-1.81 1.47,-3.27 3.28,-3.27zm12.1 -14.36c2.25,0 4.07,1.82 4.07,4.06 0,2.25 -1.82,4.07 -4.07,4.07 -2.24,0 -4.06,-1.82 -4.06,-4.07 0,-2.24 1.82,-4.06 4.06,-4.06zm0 0.79c1.81,0 3.28,1.46 3.28,3.27 0,1.81 -1.47,3.28 -3.28,3.28 -1.81,0 -3.27,-1.47 -3.27,-3.28 0,-1.81 1.46,-3.27 3.27,-3.27z"/>
 </g>
</svg>
